<svg id="Layer_1" data-name="Layer 1" xmlns="http://www.w3.org/2000/svg" width="371.5" height="155.68" viewBox="0 0 371.5 155.68"><title>Metallica logo - Brandlogos.net</title><g id="layer1"><g id="g2433"><path id="path7" d="M247.93,344.38c14.68-11.14,26.36-24.24,36.69-38.22l-17.07,38,1.71,4.13,16.12-14.07v40.26L267.55,391l4.84-33.89-6.63,8.15-3.82-8.41-28,60.64c-1,2.23,1.3,3.91,3.31,2.29l13-10.7-52,52.74,54.53-105.23,9.43-18.34c.21-.39,0-1.57-1.27-1.17l-13,7.29Z" transform="translate(-198.25 -306.16)"/><path id="path9" d="M375.74,334.11H388.1v28.81h15.41v11.25H375.74V334.11Z" transform="translate(-198.25 -306.16)"/><path id="path11" d="M405.57,334.11h12.36v28.81h14.39v11.25H405.57V334.11Z" transform="translate(-198.25 -306.16)"/><polygon id="polygon13" points="236.51 27.95 249.02 27.95 249.02 68.02 236.51 68.02 236.51 27.95"/><polygon id="polygon15" points="141 38.88 141 68.02 127.77 68.02 127.77 38.88 121.1 38.88 121.1 27.95 156.14 27.95 151.49 38.88 141 38.88"/><path id="path17" d="M288.51,334.11h28.06V345H301v4h15.56V360H301v3.26h15.56v10.93H288.51V334.11Z" transform="translate(-198.25 -306.16)"/><path id="path19" d="M372.45,334.11l.15,40.07H360.74V362.95h-.93l-5.55,11.23H341.48L359,334.11ZM359.14,354.7l3.06.11v-5.67l-3.06,5.56Z" transform="translate(-198.25 -306.16)"/><path id="path21" d="M470.9,331.75a21.28,21.28,0,0,1,14.17,5.38l-9.13,9.51a8.3,8.3,0,0,0-5.25-1.86,8,8,0,1,0,0,16,8.23,8.23,0,0,0,7.48-4.71l11.32,7.29a21.28,21.28,0,1,1-18.58-31.58Z" transform="translate(-198.25 -306.16)"/><path id="path23" d="M479.24,306.72c12.37,11,25,21.77,38,32.09l-13.07-7.64c-1.45-.72-3.58,0-2,2.94,22.54,42.3,45.52,84.42,67.58,127q-28.85-27-55.53-52.81l18.68,11.55c2.23.94,3.67-.89,1.36-4.59l-22.58-46.86-3.91-7.81-5.27-.17,4.93,31.41-15.18-17.61-2.6-48.77-10.41-18.69Zm21.31,42.82h3l-4.35-7.08,1.36,7.08Z" transform="translate(-198.25 -306.16)"/></g></g></svg>