<?xml version="1.0" encoding="UTF-8"?>
<!DOCTYPE svg PUBLIC "-//W3C//DTD SVG 1.1//EN" "http://www.w3.org/Graphics/SVG/1.1/DTD/svg11.dtd">
<svg xmlns="http://www.w3.org/2000/svg" version="1.1" width="2300px" height="1193px" style="shape-rendering:geometricPrecision; text-rendering:geometricPrecision; image-rendering:optimizeQuality; fill-rule:evenodd; clip-rule:evenodd" xmlns:xlink="http://www.w3.org/1999/xlink">
<g><path style="opacity:0.983" fill="#d70000" d="M 340.5,163.5 C 338.448,164.053 338.115,165.053 339.5,166.5C 324.103,211.023 309.103,255.69 294.5,300.5C 292.448,301.053 292.115,302.053 293.5,303.5C 275.321,354.685 257.988,406.685 241.5,459.5C 240.503,459.47 239.836,459.97 239.5,461C 238.392,462.677 238.392,464.177 239.5,465.5C 235.077,478.269 230.744,491.102 226.5,504C 226.645,504.772 226.978,505.439 227.5,506C 235.068,507.714 242.735,508.714 250.5,509C 269.183,509.267 287.849,509.934 306.5,511C 310.672,512.364 315.005,513.364 319.5,514C 321.519,514.45 323.352,515.283 325,516.5C 325.158,521.215 324.658,525.881 323.5,530.5C 321.448,531.053 321.115,532.053 322.5,533.5C 298.058,610.836 273.391,688.503 248.5,766.5C 247.503,766.47 246.836,766.97 246.5,768C 245.392,769.677 245.392,771.177 246.5,772.5C 241.036,788.026 236.036,803.692 231.5,819.5C 229.448,820.053 229.115,821.053 230.5,822.5C 227.583,830.308 224.583,838.141 221.5,846C 207.985,891.049 193.318,935.882 177.5,980.5C 175.849,982.402 175.516,984.402 176.5,986.5C 153.584,1052.15 131.584,1118.15 110.5,1184.5C 86.831,1184.67 63.1643,1184.5 39.5,1184C 29.7324,1183.89 20.2324,1182.39 11,1179.5C 11.2807,1175.13 12.114,1170.8 13.5,1166.5C 23.1844,1136.45 32.851,1106.45 42.5,1076.5C 43.4972,1076.53 44.1639,1076.03 44.5,1075C 45.6078,1073.32 45.6078,1071.82 44.5,1070.5C 73.6349,984.595 102.468,898.595 131,812.5C 142.931,773.71 155.431,735.21 168.5,697C 168.043,696.586 167.709,696.086 167.5,695.5C 170.293,689.453 172.293,683.12 173.5,676.5C 175.552,675.947 175.885,674.947 174.5,673.5C 179.702,657.863 184.369,642.03 188.5,626C 188.167,625.167 187.833,624.333 187.5,623.5C 177.637,621.348 167.637,620.182 157.5,620C 131.154,620.231 105.154,618.731 79.5,615.5C 83.2809,603.649 86.7809,591.649 90,579.5C 97.8647,559.072 105.031,538.406 111.5,517.5C 113.552,516.947 113.885,515.947 112.5,514.5C 136.254,449.456 159.587,383.289 182.5,316C 195.623,281.482 207.956,246.315 219.5,210.5C 221.552,209.947 221.885,208.947 220.5,207.5C 225.72,192.549 231.387,177.716 237.5,163C 239.285,154.809 242.118,146.642 246,138.5C 257.984,104.037 269.817,69.5366 281.5,35C 283.145,33.968 283.478,32.8013 282.5,31.5C 285.424,24.3048 288.424,17.1381 291.5,10C 313.05,7.40507 334.716,5.90507 356.5,5.5C 367.023,4.40469 376.856,6.40469 386,11.5C 386.724,17.3134 386.058,22.9801 384,28.5C 369.794,73.6164 355.294,118.616 340.5,163.5 Z"/></g>
<g><path style="opacity:0.979" fill="#d70000" d="M 646.5,550.5 C 645.167,550.5 644.5,551.167 644.5,552.5C 606.637,615.869 568.137,678.869 529,741.5C 527.229,744.052 525.229,746.385 523,748.5C 497.926,746.178 473.092,742.345 448.5,737C 447.919,736.107 447.585,735.107 447.5,734C 450.75,725.998 454.417,718.165 458.5,710.5C 476.159,682.147 493.492,653.814 510.5,625.5C 511.833,625.5 512.5,624.833 512.5,623.5C 523.389,606.072 534.055,588.406 544.5,570.5C 550.484,560.2 555.65,549.533 560,538.5C 560.667,536.167 560.667,533.833 560,531.5C 556.513,530.761 553.013,529.927 549.5,529C 546.126,525.253 543.793,520.92 542.5,516C 544.193,511.446 546.027,506.946 548,502.5C 560.197,486.976 572.364,471.476 584.5,456C 591.144,453.983 597.144,455.316 602.5,460C 604.5,460.667 606.5,460.667 608.5,460C 614,455.833 618.833,451 623,445.5C 634.726,426.264 647.059,407.931 660,390.5C 737.046,276.946 814.046,163.946 891,51.5C 926.76,50.5038 962.594,50.1705 998.5,50.5C 1000.81,296.601 997.646,542.601 989,788.5C 987.798,790.677 987.298,793.011 987.5,795.5C 962.438,796.151 937.605,795.485 913,793.5C 910.805,713.547 909.305,633.547 908.5,553.5C 858.236,549.91 807.903,546.41 757.5,543C 725.423,539.923 693.257,536.756 661,533.5C 659.167,533.833 657.333,534.167 655.5,534.5C 652.044,539.612 649.044,544.945 646.5,550.5 Z M 713.5,452.5 C 714.5,452.167 715.167,451.5 715.5,450.5C 727.052,429.741 739.886,409.741 754,390.5C 757.585,384.998 760.919,379.331 764,373.5C 802.742,317.026 841.742,260.693 881,204.5C 890.366,192.387 899.699,180.387 909,168.5C 909.87,190.192 910.87,211.858 912,233.5C 912.5,312.833 912.667,392.166 912.5,471.5C 850.368,471.28 788.535,467.28 727,459.5C 722.201,458.007 717.368,456.673 712.5,455.5C 713.127,454.583 713.461,453.583 713.5,452.5 Z"/></g>
<g><path style="opacity:0.973" fill="#d70000" d="M 1153.5,572.5 C 1155.05,572.179 1155.71,571.179 1155.5,569.5C 1170.04,540.572 1184.37,510.572 1198.5,479.5C 1200.05,479.179 1200.71,478.179 1200.5,476.5C 1208.55,459.367 1216.21,442.034 1223.5,424.5C 1225.05,424.179 1225.71,423.179 1225.5,421.5C 1227.37,418.422 1228.7,415.089 1229.5,411.5C 1231.05,411.179 1231.71,410.179 1231.5,408.5C 1244.39,381.198 1256.72,353.532 1268.5,325.5C 1270.05,325.179 1270.71,324.179 1270.5,322.5C 1282.44,295.893 1294.11,269.56 1305.5,243.5C 1307.05,243.179 1307.71,242.179 1307.5,240.5C 1310.7,234.087 1313.37,227.42 1315.5,220.5C 1317.42,220.289 1317.76,219.623 1316.5,218.5C 1324.33,202.837 1331.66,186.837 1338.5,170.5C 1358.28,169.13 1377.95,167.796 1397.5,166.5C 1403.83,166.667 1410.17,166.833 1416.5,167C 1418.38,168.185 1420.38,169.185 1422.5,170C 1423.57,170.739 1424.24,171.739 1424.5,173C 1418.55,187.12 1412.55,201.62 1406.5,216.5C 1404.95,216.821 1404.29,217.821 1404.5,219.5C 1401.78,225.309 1399.45,231.309 1397.5,237.5C 1395.95,237.821 1395.29,238.821 1395.5,240.5C 1391.52,249.793 1387.52,259.127 1383.5,268.5C 1381.95,268.821 1381.29,269.821 1381.5,271.5C 1373.42,288.156 1366.08,305.156 1359.5,322.5C 1357.95,322.821 1357.29,323.821 1357.5,325.5C 1345.02,352.725 1333.02,379.725 1321.5,406.5C 1319.95,406.821 1319.29,407.821 1319.5,409.5C 1306.7,436.401 1294.37,464.068 1282.5,492.5C 1280.95,492.821 1280.29,493.821 1280.5,495.5C 1278.63,498.578 1277.3,501.911 1276.5,505.5C 1274.95,505.821 1274.29,506.821 1274.5,508.5C 1271.29,514.922 1268.62,521.588 1266.5,528.5C 1264.95,528.821 1264.29,529.821 1264.5,531.5C 1257.8,545.943 1251.14,560.943 1244.5,576.5C 1242.95,576.821 1242.29,577.821 1242.5,579.5C 1237.84,590.478 1233.17,601.478 1228.5,612.5C 1226.95,612.821 1226.29,613.821 1226.5,615.5C 1207.31,657.715 1188.31,700.048 1169.5,742.5C 1167.95,742.821 1167.29,743.821 1167.5,745.5C 1157.7,768.204 1147.7,790.871 1137.5,813.5C 1135.95,813.821 1135.29,814.821 1135.5,816.5C 1117.41,855.973 1100.07,895.306 1083.5,934.5C 1081.95,934.821 1081.29,935.821 1081.5,937.5C 1076.21,950.754 1070.37,963.754 1064,976.5C 1062.72,980.165 1061.56,983.832 1060.5,987.5C 1058.45,988.053 1058.11,989.053 1059.5,990.5C 1057.02,993.785 1055.36,997.452 1054.5,1001.5C 1052.95,1001.82 1052.29,1002.82 1052.5,1004.5C 1034.12,1044.91 1015.12,1084.58 995.5,1123.5C 977.509,1124.67 959.509,1124.83 941.5,1124C 931.907,1123.07 922.407,1121.57 913,1119.5C 913.684,1114.76 915.018,1110.09 917,1105.5C 925.651,1088.53 933.484,1071.2 940.5,1053.5C 942.424,1053.29 942.757,1052.62 941.5,1051.5C 944.594,1046.97 946.927,1041.97 948.5,1036.5C 987.12,955.071 1026.12,873.238 1065.5,791C 1064.33,544.569 1064.17,298.069 1065,51.5C 1088.67,50.1667 1112.33,50.1667 1136,51.5C 1136.33,187.5 1136.67,323.5 1137,459.5C 1137.27,501.538 1138.6,543.538 1141,585.5C 1142.04,586.623 1142.71,587.956 1143,589.5C 1147.02,584.112 1150.52,578.446 1153.5,572.5 Z"/></g>
<g><path style="opacity:0.981" fill="#d70000" d="M 1520.5,321.5 C 1518.95,321.821 1518.29,322.821 1518.5,324.5C 1511.05,341.318 1504.05,358.318 1497.5,375.5C 1495.58,375.711 1495.24,376.377 1496.5,377.5C 1488.39,394.165 1481.06,411.165 1474.5,428.5C 1472.58,428.711 1472.24,429.377 1473.5,430.5C 1459.24,461.426 1446.24,492.926 1434.5,525C 1435.37,526.702 1436.7,527.869 1438.5,528.5C 1444.78,529.728 1451.11,530.561 1457.5,531C 1501.5,532.054 1545.5,533.054 1589.5,534C 1594.44,535.131 1599.44,536.298 1604.5,537.5C 1605.64,543.826 1605.47,550.16 1604,556.5C 1599.85,574.382 1596.02,592.382 1592.5,610.5C 1524.83,610.333 1457.17,610.5 1389.5,611C 1384.74,624.452 1380.07,637.952 1375.5,651.5C 1373.95,651.821 1373.29,652.821 1373.5,654.5C 1370.71,660.976 1368.21,667.643 1366,674.5C 1338.89,729.774 1313.39,785.774 1289.5,842.5C 1287.95,842.821 1287.29,843.821 1287.5,845.5C 1276.7,869.583 1267.03,894.25 1258.5,919.5C 1258.82,920.647 1259.48,921.481 1260.5,922C 1266.37,924.146 1272.37,925.813 1278.5,927C 1316.84,933.302 1355.51,937.636 1394.5,940C 1439.22,944.381 1483.89,949.381 1528.5,955C 1541,957.482 1553.67,959.482 1566.5,961C 1574.37,960.523 1577.53,964.023 1576,971.5C 1571.14,990.082 1565.47,1008.42 1559,1026.5C 1555.68,1030.7 1551.52,1033.53 1546.5,1035C 1539.39,1036.25 1532.23,1037.08 1525,1037.5C 1504.14,1036.41 1483.31,1034.91 1462.5,1033C 1357.84,1020.53 1253.17,1007.53 1148.5,994C 1144.99,992.686 1141.32,991.686 1137.5,991C 1136.94,990.275 1136.61,989.442 1136.5,988.5C 1142.25,970.069 1149.25,952.235 1157.5,935C 1157.17,934.667 1156.83,934.333 1156.5,934C 1177.32,888.125 1198.32,841.792 1219.5,795C 1228.55,773.113 1237.55,751.28 1246.5,729.5C 1248.05,729.179 1248.71,728.179 1248.5,726.5C 1271.46,676.265 1294.79,625.765 1318.5,575C 1318.17,574.667 1317.83,574.333 1317.5,574C 1325.67,556.819 1333.84,539.653 1342,522.5C 1345.22,513.669 1348.72,505.003 1352.5,496.5C 1354.05,496.179 1354.71,495.179 1354.5,493.5C 1362.6,476.5 1370.1,459.167 1377,441.5C 1381.99,431.228 1386.49,421.228 1390.5,411.5C 1392.05,411.179 1392.71,410.179 1392.5,408.5C 1405.64,379.883 1418.3,350.55 1430.5,320.5C 1432.42,320.289 1432.76,319.623 1431.5,318.5C 1432.47,317.691 1433.3,316.691 1434,315.5C 1442.89,293.637 1452.06,271.971 1461.5,250.5C 1463.42,250.289 1463.76,249.623 1462.5,248.5C 1465.34,243.478 1467.67,238.145 1469.5,232.5C 1471.05,232.179 1471.71,231.179 1471.5,229.5C 1478.91,214.219 1485.58,198.553 1491.5,182.5C 1493.42,182.289 1493.76,181.623 1492.5,180.5C 1494.4,176.967 1496.4,173.467 1498.5,170C 1603.03,140.909 1707.53,111.743 1812,82.5C 1827.34,78.6366 1842.84,76.1366 1858.5,75C 1864.87,76.4303 1869.7,79.9303 1873,85.5C 1877.96,108.509 1880.46,131.843 1880.5,155.5C 1874.08,156.354 1867.75,157.687 1861.5,159.5C 1761.25,187.478 1660.92,214.978 1560.5,242C 1555.33,245.833 1550.83,250.333 1547,255.5C 1537.23,277.526 1528.39,299.526 1520.5,321.5 Z"/></g>
<g><path style="opacity:0.983" fill="#d70000" d="M 1796.5,750.5 C 1794.95,750.821 1794.29,751.821 1794.5,753.5C 1771.76,812.993 1749.09,872.993 1726.5,933.5C 1724.95,933.821 1724.29,934.821 1724.5,936.5C 1715.83,959.826 1706.16,982.826 1695.5,1005.5C 1693.33,1009.16 1690.83,1013.16 1688,1017.5C 1685.35,1020.48 1682.01,1022.15 1678,1022.5C 1660.68,1020.77 1643.34,1019.11 1626,1017.5C 1620.15,1016.05 1614.32,1014.55 1608.5,1013C 1607.94,1012.28 1607.61,1011.44 1607.5,1010.5C 1650.09,904.964 1690.76,798.631 1729.5,691.5C 1731.55,690.947 1731.89,689.947 1730.5,688.5C 1735.89,675.319 1740.89,661.985 1745.5,648.5C 1747.42,648.289 1747.76,647.623 1746.5,646.5C 1754.83,626.664 1762.49,606.498 1769.5,586C 1770.34,584.829 1771.17,583.662 1772,582.5C 1773.46,578.577 1774.63,574.577 1775.5,570.5C 1777.05,570.179 1777.71,569.179 1777.5,567.5C 1781.52,555.416 1785.86,543.416 1790.5,531.5C 1792.05,531.179 1792.71,530.179 1792.5,528.5C 1802.21,502.64 1811.88,476.307 1821.5,449.5C 1823.42,449.289 1823.76,448.623 1822.5,447.5C 1830.5,428.539 1837.84,408.873 1844.5,388.5C 1846.42,388.289 1846.76,387.623 1845.5,386.5C 1863.18,341.045 1880.52,295.045 1897.5,248.5C 1899.05,248.179 1899.71,247.179 1899.5,245.5C 1906.8,226.234 1913.8,207.234 1920.5,188.5C 1922.05,188.179 1922.71,187.179 1922.5,185.5C 1925.05,179.718 1927.05,173.718 1928.5,167.5C 1930.42,167.289 1930.76,166.623 1929.5,165.5C 1932.6,159.374 1935.6,153.207 1938.5,147C 1960.54,132.557 1983.04,118.723 2006,105.5C 2011.14,103.231 2016.48,101.564 2022,100.5C 2025.38,101.072 2028.55,102.239 2031.5,104C 2048.61,126.391 2065.11,149.225 2081,172.5C 2147.26,270.015 2213.26,367.348 2279,464.5C 2281.48,470.125 2284.48,475.458 2288,480.5C 2288.49,482.134 2288.66,483.801 2288.5,485.5C 2259.01,496.774 2229.68,508.441 2200.5,520.5C 2156.85,536.771 2113.18,552.938 2069.5,569C 2071.66,583.453 2073.83,597.953 2076,612.5C 2091.13,697.277 2107.13,781.943 2124,866.5C 2131.21,906.589 2138.04,946.755 2144.5,987C 2144.01,989.819 2142.84,992.319 2141,994.5C 2131.53,1001.88 2121.03,1007.38 2109.5,1011C 2099.44,1013.28 2089.44,1015.45 2079.5,1017.5C 2077.88,1016.88 2076.55,1015.88 2075.5,1014.5C 2073.17,1008.49 2070.83,1002.49 2068.5,996.5C 2062.96,975.654 2058.13,954.654 2054,933.5C 2039,847.832 2024,762.166 2009,676.5C 2004.92,653.006 2000.08,629.672 1994.5,606.5C 1993.33,606.167 1992.17,605.833 1991,605.5C 1939.25,615.813 1888.42,629.646 1838.5,647C 1827.66,668.631 1818.33,690.964 1810.5,714C 1810.09,714.945 1809.43,715.612 1808.5,716C 1806.7,723.573 1803.86,731.073 1800,738.5C 1798.54,742.423 1797.37,746.423 1796.5,750.5 Z M 2151.5,415.5 C 2151.93,416.71 2152.6,417.71 2153.5,418.5C 2157.63,425.996 2161.63,433.163 2165.5,440C 2164.56,441.944 2163.23,443.611 2161.5,445C 2157,447.083 2152.66,449.417 2148.5,452C 2065.17,477.998 1981.84,503.998 1898.5,530C 1894.22,531.244 1889.89,531.577 1885.5,531C 1884.39,528.263 1884.22,525.429 1885,522.5C 1899.45,476.92 1915.28,432.254 1932.5,388.5C 1932.56,387.391 1932.89,386.391 1933.5,385.5C 1940.04,365.193 1947.04,345.526 1954.5,326.5C 1955.4,325.71 1956.07,324.71 1956.5,323.5C 1966.38,296.89 1976.38,269.89 1986.5,242.5C 1987.4,241.71 1988.07,240.71 1988.5,239.5C 1992.03,230.208 1995.87,220.541 2000,210.5C 2005.75,206.271 2011.09,206.938 2016,212.5C 2064.18,278.218 2109.35,345.884 2151.5,415.5 Z"/></g>
<g><path style="opacity:0.098" fill="#ed0000" d="M 340.5,163.5 C 339.89,164.391 339.557,165.391 339.5,166.5C 338.115,165.053 338.448,164.053 340.5,163.5 Z"/></g>
<g><path style="opacity:0.176" fill="#f80000" d="M 1929.5,165.5 C 1930.76,166.623 1930.42,167.289 1928.5,167.5C 1928.83,166.833 1929.17,166.167 1929.5,165.5 Z"/></g>
<g><path style="opacity:0.982" fill="#d70000" d="M 569.5,270.5 C 567.448,271.053 567.115,272.053 568.5,273.5C 564.195,284.718 560.195,296.052 556.5,307.5C 555.503,307.47 554.836,307.97 554.5,309C 553.392,310.677 553.392,312.177 554.5,313.5C 545.741,336.851 537.741,360.517 530.5,384.5C 528.448,385.053 528.115,386.053 529.5,387.5C 524.925,398.553 520.925,409.887 517.5,421.5C 516.503,421.47 515.836,421.97 515.5,423C 514.392,424.677 514.392,426.177 515.5,427.5C 502.322,462.711 489.989,498.711 478.5,535.5C 476.576,535.711 476.243,536.377 477.5,537.5C 464.635,573.249 452.302,609.249 440.5,645.5C 438.448,646.053 438.115,647.053 439.5,648.5C 418.958,706.977 399.124,764.977 380,822.5C 375.881,834.306 372.381,846.306 369.5,858.5C 367.448,859.053 367.115,860.053 368.5,861.5C 367.609,862.261 366.942,863.261 366.5,864.5C 360.646,882.89 355.313,901.39 350.5,920C 357.883,920.161 365.216,919.495 372.5,918C 395.854,913.395 419.187,908.395 442.5,903C 541.196,878.327 640.029,854.16 739,830.5C 739.945,830.905 740.612,831.572 741,832.5C 744.292,845.953 745.959,859.62 746,873.5C 746.667,888.5 746.667,903.5 746,918.5C 745.689,920.556 745.189,922.556 744.5,924.5C 596.855,962.497 449.189,1000.5 301.5,1038.5C 274.702,1046.23 247.702,1053.4 220.5,1060C 217.406,1060.65 214.406,1060.32 211.5,1059C 210.106,1058.04 209.439,1056.71 209.5,1055C 210.588,1050.15 211.755,1045.31 213,1040.5C 235.65,973.575 258.15,906.575 280.5,839.5C 282.424,839.289 282.757,838.623 281.5,837.5C 290.268,814.196 298.268,790.529 305.5,766.5C 306.311,765.784 306.978,764.95 307.5,764C 314.485,743.546 321.152,723.046 327.5,702.5C 329.424,702.289 329.757,701.623 328.5,700.5C 341.28,665.829 353.28,630.829 364.5,595.5C 366.424,595.289 366.757,594.623 365.5,593.5C 373.828,571.522 381.495,548.856 388.5,525.5C 390.552,524.947 390.885,523.947 389.5,522.5C 395.495,506.965 401.329,491.299 407,475.5C 423.944,425.502 440.777,375.502 457.5,325.5C 459.552,324.947 459.885,323.947 458.5,322.5C 459.278,321.844 459.944,321.011 460.5,320C 466.617,301.817 472.617,283.65 478.5,265.5C 479.497,265.53 480.164,265.03 480.5,264C 481.608,262.323 481.608,260.823 480.5,259.5C 488.7,238.095 496.533,216.095 504,193.5C 509.26,186.951 516.093,183.118 524.5,182C 549.481,180.681 574.481,180.181 599.5,180.5C 589.812,210.231 579.812,240.231 569.5,270.5 Z"/></g>
<g><path style="opacity:0.188" fill="#f70000" d="M 1492.5,180.5 C 1493.76,181.623 1493.42,182.289 1491.5,182.5C 1491.83,181.833 1492.17,181.167 1492.5,180.5 Z"/></g>
<g><path style="opacity:0.278" fill="#f00000" d="M 1922.5,185.5 C 1922.71,187.179 1922.05,188.179 1920.5,188.5C 1920.93,187.29 1921.6,186.29 1922.5,185.5 Z"/></g>
<g><path style="opacity:0.169" fill="#f00000" d="M 220.5,207.5 C 221.885,208.947 221.552,209.947 219.5,210.5C 220.11,209.609 220.443,208.609 220.5,207.5 Z"/></g>
<g><path style="opacity:0.047" fill="#ef0000" d="M 1406.5,216.5 C 1406.07,217.71 1405.4,218.71 1404.5,219.5C 1404.29,217.821 1404.95,216.821 1406.5,216.5 Z"/></g>
<g><path style="opacity:0.145" fill="#f80000" d="M 1316.5,218.5 C 1317.76,219.623 1317.42,220.289 1315.5,220.5C 1315.83,219.833 1316.17,219.167 1316.5,218.5 Z"/></g>
<g><path style="opacity:0.088" fill="#ed0000" d="M 1471.5,229.5 C 1471.71,231.179 1471.05,232.179 1469.5,232.5C 1469.93,231.29 1470.6,230.29 1471.5,229.5 Z"/></g>
<g><path style="opacity:0.078" fill="#f60000" d="M 1397.5,237.5 C 1397.07,238.71 1396.4,239.71 1395.5,240.5C 1395.29,238.821 1395.95,237.821 1397.5,237.5 Z"/></g>
<g><path style="opacity:0.055" fill="#f00000" d="M 1988.5,239.5 C 1988.07,240.71 1987.4,241.71 1986.5,242.5C 1986.29,240.821 1986.95,239.821 1988.5,239.5 Z"/></g>
<g><path style="opacity:0.416" fill="#ee0000" d="M 1307.5,240.5 C 1307.71,242.179 1307.05,243.179 1305.5,243.5C 1305.93,242.29 1306.6,241.29 1307.5,240.5 Z"/></g>
<g><path style="opacity:0.163" fill="#ee0000" d="M 1899.5,245.5 C 1899.71,247.179 1899.05,248.179 1897.5,248.5C 1897.93,247.29 1898.6,246.29 1899.5,245.5 Z"/></g>
<g><path style="opacity:0.141" fill="#f60000" d="M 1462.5,248.5 C 1463.76,249.623 1463.42,250.289 1461.5,250.5C 1461.83,249.833 1462.17,249.167 1462.5,248.5 Z"/></g>
<g><path style="opacity:0.275" fill="#ea0000" d="M 480.5,259.5 C 481.608,260.823 481.608,262.323 480.5,264C 480.164,265.03 479.497,265.53 478.5,265.5C 479.363,263.579 480.029,261.579 480.5,259.5 Z"/></g>
<g><path style="opacity:0.137" fill="#f20000" d="M 1383.5,268.5 C 1383.07,269.71 1382.4,270.71 1381.5,271.5C 1381.29,269.821 1381.95,268.821 1383.5,268.5 Z"/></g>
<g><path style="opacity:0.051" fill="#f10000" d="M 569.5,270.5 C 568.89,271.391 568.557,272.391 568.5,273.5C 567.115,272.053 567.448,271.053 569.5,270.5 Z"/></g>
<g><path style="opacity:0.008" fill="#ee0000" d="M 294.5,300.5 C 293.89,301.391 293.557,302.391 293.5,303.5C 292.115,302.053 292.448,301.053 294.5,300.5 Z"/></g>
<g><path style="opacity:0.216" fill="#e70000" d="M 556.5,307.5 C 555.637,309.421 554.971,311.421 554.5,313.5C 553.392,312.177 553.392,310.677 554.5,309C 554.836,307.97 555.503,307.47 556.5,307.5 Z"/></g>
<g><path style="opacity:0.137" fill="#fa0000" d="M 1431.5,318.5 C 1432.76,319.623 1432.42,320.289 1430.5,320.5C 1430.83,319.833 1431.17,319.167 1431.5,318.5 Z"/></g>
<g><path style="opacity:0.008" fill="#f50000" d="M 1520.5,321.5 C 1520.07,322.71 1519.4,323.71 1518.5,324.5C 1518.29,322.821 1518.95,321.821 1520.5,321.5 Z"/></g>
<g><path style="opacity:0.004" fill="#f30000" d="M 1359.5,322.5 C 1359.07,323.71 1358.4,324.71 1357.5,325.5C 1357.29,323.821 1357.95,322.821 1359.5,322.5 Z"/></g>
<g><path style="opacity:0.122" fill="#f10000" d="M 458.5,322.5 C 459.885,323.947 459.552,324.947 457.5,325.5C 458.11,324.609 458.443,323.609 458.5,322.5 Z"/></g>
<g><path style="opacity:0.349" fill="#ee0000" d="M 1270.5,322.5 C 1270.71,324.179 1270.05,325.179 1268.5,325.5C 1268.93,324.29 1269.6,323.29 1270.5,322.5 Z"/></g>
<g><path style="opacity:0.016" fill="#f30000" d="M 1956.5,323.5 C 1956.07,324.71 1955.4,325.71 1954.5,326.5C 1954.29,324.821 1954.95,323.821 1956.5,323.5 Z"/></g>
<g><path style="opacity:0.008" fill="#f70000" d="M 1497.5,375.5 C 1497.17,376.167 1496.83,376.833 1496.5,377.5C 1495.24,376.377 1495.58,375.711 1497.5,375.5 Z"/></g>
<g><path style="opacity:0.02" fill="#f30000" d="M 530.5,384.5 C 529.89,385.391 529.557,386.391 529.5,387.5C 528.115,386.053 528.448,385.053 530.5,384.5 Z"/></g>
<g><path style="opacity:0.078" fill="#f80000" d="M 1845.5,386.5 C 1846.76,387.623 1846.42,388.289 1844.5,388.5C 1844.83,387.833 1845.17,387.167 1845.5,386.5 Z"/></g>
<g><path style="opacity:0.02" fill="#f30000" d="M 1933.5,385.5 C 1932.89,386.391 1932.56,387.391 1932.5,388.5C 1931.11,387.053 1931.45,386.053 1933.5,385.5 Z"/></g>
<g><path style="opacity:0.008" fill="#f10000" d="M 1321.5,406.5 C 1321.07,407.71 1320.4,408.71 1319.5,409.5C 1319.29,407.821 1319.95,406.821 1321.5,406.5 Z"/></g>
<g><path style="opacity:0.357" fill="#f00000" d="M 1231.5,408.5 C 1231.71,410.179 1231.05,411.179 1229.5,411.5C 1229.93,410.29 1230.6,409.29 1231.5,408.5 Z"/></g>
<g><path style="opacity:0.341" fill="#f00000" d="M 1392.5,408.5 C 1392.71,410.179 1392.05,411.179 1390.5,411.5C 1390.93,410.29 1391.6,409.29 1392.5,408.5 Z"/></g>
<g><path style="opacity:0.006" fill="#f70000" d="M 2151.5,415.5 C 2153.05,415.821 2153.71,416.821 2153.5,418.5C 2152.6,417.71 2151.93,416.71 2151.5,415.5 Z"/></g>
<g><path style="opacity:0.135" fill="#ea0000" d="M 517.5,421.5 C 516.637,423.421 515.971,425.421 515.5,427.5C 514.392,426.177 514.392,424.677 515.5,423C 515.836,421.97 516.503,421.47 517.5,421.5 Z"/></g>
<g><path style="opacity:0.124" fill="#f00000" d="M 1225.5,421.5 C 1225.71,423.179 1225.05,424.179 1223.5,424.5C 1223.93,423.29 1224.6,422.29 1225.5,421.5 Z"/></g>
<g><path style="opacity:0.004" fill="#f80000" d="M 1474.5,428.5 C 1474.17,429.167 1473.83,429.833 1473.5,430.5C 1472.24,429.377 1472.58,428.711 1474.5,428.5 Z"/></g>
<g><path style="opacity:0.157" fill="#f60000" d="M 1822.5,447.5 C 1823.76,448.623 1823.42,449.289 1821.5,449.5C 1821.83,448.833 1822.17,448.167 1822.5,447.5 Z"/></g>
<g><path style="opacity:0.09" fill="#f90000" d="M 715.5,450.5 C 715.167,451.5 714.5,452.167 713.5,452.5C 713.5,451.167 714.167,450.5 715.5,450.5 Z"/></g>
<g><path style="opacity:0.167" fill="#ea0000" d="M 241.5,459.5 C 240.637,461.421 239.971,463.421 239.5,465.5C 238.392,464.177 238.392,462.677 239.5,461C 239.836,459.97 240.503,459.47 241.5,459.5 Z"/></g>
<g><path style="opacity:0.431" fill="#ed0000" d="M 1200.5,476.5 C 1200.71,478.179 1200.05,479.179 1198.5,479.5C 1198.93,478.29 1199.6,477.29 1200.5,476.5 Z"/></g>
<g><path style="opacity:0.024" fill="#f20000" d="M 1282.5,492.5 C 1282.07,493.71 1281.4,494.71 1280.5,495.5C 1280.29,493.821 1280.95,492.821 1282.5,492.5 Z"/></g>
<g><path style="opacity:0.275" fill="#f30000" d="M 1354.5,493.5 C 1354.71,495.179 1354.05,496.179 1352.5,496.5C 1352.93,495.29 1353.6,494.29 1354.5,493.5 Z"/></g>
<g><path style="opacity:0.169" fill="#f00000" d="M 1276.5,505.5 C 1276.07,506.71 1275.4,507.71 1274.5,508.5C 1274.29,506.821 1274.95,505.821 1276.5,505.5 Z"/></g>
<g><path style="opacity:0.116" fill="#f20000" d="M 112.5,514.5 C 113.885,515.947 113.552,516.947 111.5,517.5C 112.11,516.609 112.443,515.609 112.5,514.5 Z"/></g>
<g><path style="opacity:0.049" fill="#f40000" d="M 389.5,522.5 C 390.885,523.947 390.552,524.947 388.5,525.5C 389.11,524.609 389.443,523.609 389.5,522.5 Z"/></g>
<g><path style="opacity:0.049" fill="#f40000" d="M 1266.5,528.5 C 1266.07,529.71 1265.4,530.71 1264.5,531.5C 1264.29,529.821 1264.95,528.821 1266.5,528.5 Z"/></g>
<g><path style="opacity:0.139" fill="#ef0000" d="M 1792.5,528.5 C 1792.71,530.179 1792.05,531.179 1790.5,531.5C 1790.93,530.29 1791.6,529.29 1792.5,528.5 Z"/></g>
<g><path style="opacity:0.027" fill="#f40000" d="M 323.5,530.5 C 322.89,531.391 322.557,532.391 322.5,533.5C 321.115,532.053 321.448,531.053 323.5,530.5 Z"/></g>
<g><path style="opacity:0.004" fill="#f70000" d="M 478.5,535.5 C 478.167,536.167 477.833,536.833 477.5,537.5C 476.243,536.377 476.576,535.711 478.5,535.5 Z"/></g>
<g><path style="opacity:0.104" fill="#f70000" d="M 646.5,550.5 C 646.167,551.5 645.5,552.167 644.5,552.5C 644.5,551.167 645.167,550.5 646.5,550.5 Z"/></g>
<g><path style="opacity:0.212" fill="#f10000" d="M 1777.5,567.5 C 1777.71,569.179 1777.05,570.179 1775.5,570.5C 1775.93,569.29 1776.6,568.29 1777.5,567.5 Z"/></g>
<g><path style="opacity:0.255" fill="#f50000" d="M 1155.5,569.5 C 1155.71,571.179 1155.05,572.179 1153.5,572.5C 1153.93,571.29 1154.6,570.29 1155.5,569.5 Z"/></g>
<g><path style="opacity:0.039" fill="#f20000" d="M 1244.5,576.5 C 1244.07,577.71 1243.4,578.71 1242.5,579.5C 1242.29,577.821 1242.95,576.821 1244.5,576.5 Z"/></g>
<g><path style="opacity:0.18" fill="#f80000" d="M 365.5,593.5 C 366.757,594.623 366.424,595.289 364.5,595.5C 364.833,594.833 365.167,594.167 365.5,593.5 Z"/></g>
<g><path style="opacity:0.008" fill="#f60000" d="M 1228.5,612.5 C 1228.07,613.71 1227.4,614.71 1226.5,615.5C 1226.29,613.821 1226.95,612.821 1228.5,612.5 Z"/></g>
<g><path style="opacity:0.084" fill="#f70000" d="M 512.5,623.5 C 512.5,624.833 511.833,625.5 510.5,625.5C 510.833,624.5 511.5,623.833 512.5,623.5 Z"/></g>
<g><path style="opacity:0.122" fill="#ed0000" d="M 440.5,645.5 C 439.89,646.391 439.557,647.391 439.5,648.5C 438.115,647.053 438.448,646.053 440.5,645.5 Z"/></g>
<g><path style="opacity:0.051" fill="#f90000" d="M 1746.5,646.5 C 1747.76,647.623 1747.42,648.289 1745.5,648.5C 1745.83,647.833 1746.17,647.167 1746.5,646.5 Z"/></g>
<g><path style="opacity:0.008" fill="#f00000" d="M 1375.5,651.5 C 1375.07,652.71 1374.4,653.71 1373.5,654.5C 1373.29,652.821 1373.95,651.821 1375.5,651.5 Z"/></g>
<g><path style="opacity:0.094" fill="#ee0000" d="M 174.5,673.5 C 175.885,674.947 175.552,675.947 173.5,676.5C 174.11,675.609 174.443,674.609 174.5,673.5 Z"/></g>
<g><path style="opacity:0.247" fill="#ed0000" d="M 1730.5,688.5 C 1731.89,689.947 1731.55,690.947 1729.5,691.5C 1730.11,690.609 1730.44,689.609 1730.5,688.5 Z"/></g>
<g><path style="opacity:0.055" fill="#fa0000" d="M 328.5,700.5 C 329.757,701.623 329.424,702.289 327.5,702.5C 327.833,701.833 328.167,701.167 328.5,700.5 Z"/></g>
<g><path style="opacity:0.141" fill="#ed0000" d="M 1248.5,726.5 C 1248.71,728.179 1248.05,729.179 1246.5,729.5C 1246.93,728.29 1247.6,727.29 1248.5,726.5 Z"/></g>
<g><path style="opacity:0.18" fill="#ef0000" d="M 1169.5,742.5 C 1169.07,743.71 1168.4,744.71 1167.5,745.5C 1167.29,743.821 1167.95,742.821 1169.5,742.5 Z"/></g>
<g><path style="opacity:0.004" fill="#f30000" d="M 1796.5,750.5 C 1796.07,751.71 1795.4,752.71 1794.5,753.5C 1794.29,751.821 1794.95,750.821 1796.5,750.5 Z"/></g>
<g><path style="opacity:0.151" fill="#ea0000" d="M 248.5,766.5 C 247.637,768.421 246.971,770.421 246.5,772.5C 245.392,771.177 245.392,769.677 246.5,768C 246.836,766.97 247.503,766.47 248.5,766.5 Z"/></g>
<g><path style="opacity:0.047" fill="#ef0000" d="M 1137.5,813.5 C 1137.07,814.71 1136.4,815.71 1135.5,816.5C 1135.29,814.821 1135.95,813.821 1137.5,813.5 Z"/></g>
<g><path style="opacity:0.059" fill="#f40000" d="M 231.5,819.5 C 230.89,820.391 230.557,821.391 230.5,822.5C 229.115,821.053 229.448,820.053 231.5,819.5 Z"/></g>
<g><path style="opacity:0.161" fill="#f60000" d="M 281.5,837.5 C 282.757,838.623 282.424,839.289 280.5,839.5C 280.833,838.833 281.167,838.167 281.5,837.5 Z"/></g>
<g><path style="opacity:0.004" fill="#f40000" d="M 1289.5,842.5 C 1289.07,843.71 1288.4,844.71 1287.5,845.5C 1287.29,843.821 1287.95,842.821 1289.5,842.5 Z"/></g>
<g><path style="opacity:0.055" fill="#f30000" d="M 369.5,858.5 C 368.89,859.391 368.557,860.391 368.5,861.5C 367.115,860.053 367.448,859.053 369.5,858.5 Z"/></g>
<g><path style="opacity:0.047" fill="#f50000" d="M 1726.5,933.5 C 1726.07,934.71 1725.4,935.71 1724.5,936.5C 1724.29,934.821 1724.95,933.821 1726.5,933.5 Z"/></g>
<g><path style="opacity:0.11" fill="#f20000" d="M 1083.5,934.5 C 1083.07,935.71 1082.4,936.71 1081.5,937.5C 1081.29,935.821 1081.95,934.821 1083.5,934.5 Z"/></g>
<g><path style="opacity:0.012" fill="#ed0000" d="M 177.5,980.5 C 177.483,982.565 177.15,984.565 176.5,986.5C 175.516,984.402 175.849,982.402 177.5,980.5 Z"/></g>
<g><path style="opacity:0.004" fill="#f30000" d="M 1060.5,987.5 C 1059.89,988.391 1059.56,989.391 1059.5,990.5C 1058.11,989.053 1058.45,988.053 1060.5,987.5 Z"/></g>
<g><path style="opacity:0.161" fill="#f00000" d="M 1054.5,1001.5 C 1054.07,1002.71 1053.4,1003.71 1052.5,1004.5C 1052.29,1002.82 1052.95,1001.82 1054.5,1001.5 Z"/></g>
<g><path style="opacity:0.049" fill="#f80000" d="M 941.5,1051.5 C 942.757,1052.62 942.424,1053.29 940.5,1053.5C 940.833,1052.83 941.167,1052.17 941.5,1051.5 Z"/></g>
<g><path style="opacity:0.081" fill="#ed0000" d="M 44.5,1070.5 C 45.6078,1071.82 45.6078,1073.32 44.5,1075C 44.1639,1076.03 43.4972,1076.53 42.5,1076.5C 43.3627,1074.58 44.0293,1072.58 44.5,1070.5 Z"/></g>
</svg>
